<?xml version="1.0" standalone="no"?>
<!DOCTYPE svg PUBLIC "-//W3C//DTD SVG 20010904//EN"
 "http://www.w3.org/TR/2001/REC-SVG-20010904/DTD/svg10.dtd">
<svg version="1.0" xmlns="http://www.w3.org/2000/svg"
 width="700.000000pt" height="700.000000pt" viewBox="0 0 700.000000 700.000000"
 preserveAspectRatio="xMidYMid meet">
<metadata>
Created by potrace 1.11, written by Peter Selinger 2001-2013
</metadata>
<g transform="translate(0.000000,700.000000) scale(0.100000,-0.100000)"
fill="#000000" stroke="none">
<path d="M39 6983 c0 -10 -2 -25 -4 -33 -5 -26 -15 -92 -24 -165 -8 -70 -7
-417 2 -465 3 -14 8 -47 12 -75 17 -137 75 -352 133 -495 34 -84 106 -235 120
-253 6 -7 22 -34 37 -61 15 -28 50 -81 77 -119 27 -38 52 -75 55 -83 2 -7 -16
-53 -42 -101 -127 -238 -245 -551 -305 -808 -29 -120 -27 -114 -49 -245 -38
-227 -46 -325 -45 -595 0 -233 11 -378 39 -545 6 -32 24 -129 29 -155 22 -110
100 -392 126 -450 4 -11 25 -65 46 -120 44 -120 137 -314 212 -445 471 -822
1250 -1420 2159 -1655 72 -19 142 -36 155 -39 13 -2 50 -9 83 -15 33 -6 71
-13 85 -16 14 -3 52 -8 85 -11 33 -3 63 -8 66 -9 15 -10 227 -20 409 -20 188
0 341 8 430 21 144 21 295 48 345 61 33 8 67 16 75 18 109 22 388 117 549 187
121 53 308 148 353 179 14 11 29 19 33 19 14 0 286 187 385 265 161 127 330
288 453 430 33 39 63 72 67 75 3 3 44 55 90 115 332 436 547 915 654 1456 14
70 28 155 32 190 3 35 8 67 10 70 10 18 19 219 18 419 -1 235 -4 291 -30 480
-5 44 -38 224 -48 265 -29 127 -41 174 -70 269 -62 202 -125 357 -234 573
l-66 132 32 45 c212 295 360 658 398 971 2 22 7 54 9 70 3 17 7 109 9 205 3
172 -1 249 -25 403 l-11 77 -197 0 -198 0 -54 -67 c-205 -256 -558 -522 -835
-631 l-50 -20 -30 22 c-128 100 -378 252 -559 340 -176 85 -177 86 -187 86 -4
0 -27 8 -51 19 -80 35 -102 43 -224 81 -167 54 -353 100 -463 116 -19 3 -60 9
-90 14 -237 41 -723 48 -950 14 -82 -12 -217 -34 -240 -39 -14 -3 -38 -8 -55
-10 -125 -22 -500 -139 -599 -186 -22 -11 -43 -19 -48 -19 -4 0 -74 -33 -156
-73 -178 -88 -376 -205 -501 -297 -108 -80 -89 -80 -266 10 -215 109 -397 241
-565 410 -95 96 -106 108 -168 188 l-34 42 -199 0 c-183 0 -199 -1 -200 -17z
m2121 -1784 c138 -45 176 -60 330 -131 60 -27 208 -114 220 -128 3 -3 21 -17
40 -29 58 -39 184 -174 224 -239 59 -98 87 -189 86 -287 0 -248 -177 -435
-421 -444 -118 -4 -226 36 -312 118 -160 151 -182 403 -51 577 13 17 24 33 24
37 0 10 -214 95 -325 129 -96 29 -116 39 -157 78 -141 137 -41 371 157 368 22
-1 105 -22 185 -49z m2937 40 c114 -43 174 -154 143 -269 -8 -32 -26 -59 -59
-90 -42 -41 -61 -50 -196 -93 -122 -39 -267 -97 -283 -112 -2 -2 12 -25 30
-52 56 -82 80 -161 77 -255 -4 -122 -39 -208 -120 -293 -152 -161 -412 -179
-582 -41 -108 88 -156 183 -164 328 -5 75 -2 99 20 170 88 281 408 522 892
672 66 21 125 39 130 41 22 8 85 4 112 -6z m-2881 -2571 c104 -167 286 -346
469 -464 152 -97 392 -189 545 -210 25 -3 63 -9 85 -13 103 -19 305 -12 470
15 89 15 230 59 323 100 29 13 54 24 57 24 2 0 43 23 91 50 196 114 367 269
494 448 68 97 70 98 127 56 17 -13 34 -24 36 -24 7 0 439 -260 451 -270 14
-13 -67 -135 -199 -299 -45 -55 -219 -223 -297 -285 -235 -188 -507 -327 -793
-405 -60 -17 -126 -33 -145 -36 -19 -3 -60 -10 -90 -15 -87 -16 -205 -24 -340
-24 -116 0 -308 12 -320 19 -3 2 -26 6 -50 10 -254 35 -592 169 -835 331 -168
113 -365 287 -465 413 -19 24 -40 48 -45 55 -16 18 -108 147 -136 190 l-25 40
275 167 c152 92 279 168 283 168 4 1 20 -18 34 -41z"/>
</g>
</svg>
